<svg xmlns="http://www.w3.org/2000/svg" xmlns:xlink="http://www.w3.org/1999/xlink" version="1.1" x="0px" y="0px" viewBox="0 0 100 100" enable-background="new 0 0 100 100" xml:space="preserve"><g><path fill="#ffffff" d="M82.9306641,45.4127197v-6.4342041c0-2.1088867-1.7158203-3.824707-3.8251953-3.824707h-3.1572266   v-2.0571289c0-1.512207-1.2304688-2.7426758-2.7421875-2.7426758h-6.2568359c-0.4140625,0-0.75,0.3359375-0.75,0.75v14.2797852   H33.9765625V31.1040039c0-0.4140625-0.3359375-0.75-0.75-0.75h-6.4326172c-1.5117188,0-2.7421875,1.2304688-2.7421875,2.7426758   v2.0571289h-3.1572266c-2.109375,0-3.8251953,1.7158203-3.8251953,3.824707v6.4342041   c-2.1609497,0.3604736-3.8173828,2.2298584-3.8173828,4.4915771v0.565918c0,2.2617188,1.6564331,4.1311035,3.8173828,4.4915771   v6.0596924c0,2.1088867,1.7158203,3.824707,3.8251953,3.824707h3.1572266v2.0571289   c0,1.512207,1.2304688,2.7426758,2.7421875,2.7426758h6.4326172c0.4140625,0,0.75-0.3359375,0.75-0.75V54.6162109h32.2226562   v14.2797852c0,0.4140625,0.3359375,0.75,0.75,0.75h6.2568359c1.5117188,0,2.7421875-1.2304688,2.7421875-2.7426758v-2.0571289   h3.1572266c2.109375,0,3.8251953-1.7158203,3.8251953-3.824707V54.961792   c2.1609497-0.3604736,3.8173828-2.2298584,3.8173828-4.4915771v-0.565918   C86.7480469,47.6425781,85.0916138,45.7731934,82.9306641,45.4127197z M73.2060547,68.1459961h-5.5068359V31.8540039h5.5068359   c0.6845703,0,1.2421875,0.5576172,1.2421875,1.2426758v2.647583c-0.0119019,0.0529785-0.0322266,0.1029663-0.0322266,0.1595459   v28.1923828c0,0.0565796,0.0203247,0.1065674,0.0322266,0.1595459v2.647583   C74.4482422,67.5883789,73.890625,68.1459961,73.2060547,68.1459961z M75.9160156,36.6538086h3.1894531   c1.2822266,0,2.3251953,1.0429688,2.3251953,2.324707v7.1083984v8.2006836v6.7338867   c0,1.2817383-1.0429688,2.324707-2.3251953,2.324707h-3.1894531V36.6538086z M26.7939453,68.1459961   c-0.6845703,0-1.2421875-0.5576172-1.2421875-1.2426758v-2.647583c0.0119019-0.0529785,0.0322266-0.1029663,0.0322266-0.1595459   V35.9038086c0-0.0565796-0.0203247-0.1065674-0.0322266-0.1595459v-2.647583c0-0.6850586,0.5576172-1.2426758,1.2421875-1.2426758   h5.6826172v36.2919922H26.7939453z M18.5693359,54.2875977v-8.2006836v-7.1083984   c0-1.2817383,1.0429688-2.324707,2.3251953-2.324707h3.1894531v26.6923828h-3.1894531   c-1.2822266,0-2.3251953-1.0429688-2.3251953-2.324707V54.2875977z M14.7519531,50.4702148v-0.565918   c0-1.4326172,0.9873047-2.6391602,2.3173828-2.9746094v6.5151367C15.7392578,53.109375,14.7519531,51.902832,14.7519531,50.4702148   z M33.9765625,53.1162109v-6.2324219h32.2226562v6.2324219H33.9765625z M85.2480469,50.4702148   c0,1.4326172-0.9873047,2.6391602-2.3173828,2.9746094v-6.5151367c1.3300781,0.3354492,2.3173828,1.5419922,2.3173828,2.9746094   V50.4702148z"/></g></svg>