<svg xmlns="http://www.w3.org/2000/svg" xmlns:xlink="http://www.w3.org/1999/xlink" version="1.1" x="0px" y="0px" viewBox="0 0 100 100" style="enable-background:new 0 0 100 100;" xml:space="preserve"><style type="text/css">
	.st0{fill:#ff3366;}
</style><path class="st0" d="M95,43.9h-6.4v-6.7c0-2-1.7-3.7-3.7-3.7h-4.4c-0.3,0-0.7,0.1-1,0.1v-1.4c0-2-1.7-3.7-3.7-3.7  h-7.2c-2,0-3.7,1.7-3.7,3.7v11.6H36V32.3c0-2-1.7-3.7-3.7-3.7h-7.2c-2,0-3.7,1.7-3.7,3.7v1.4c-0.3-0.1-0.6-0.1-1-0.1H16  c-2,0-3.7,1.7-3.7,3.7v6.7H5.9c-0.7,0-1.4,0.6-1.4,1.3v10.5c0,0.7,0.6,1.3,1.4,1.3h6.4v6.7c0,2,1.7,3.7,3.7,3.7h4.4  c0.3,0,0.7-0.1,1-0.1v1.4c0,2,1.7,3.7,3.7,3.7h7.2c2,0,3.7-1.7,3.7-3.7V57.1h28.9v11.6c0,2,1.7,3.7,3.7,3.7h7.2c2,0,3.7-1.7,3.7-3.7  v-1.4c0.3,0.1,0.6,0.1,1,0.1h4.4c2,0,3.7-1.7,3.7-3.7v-6.7H95c0.7,0,1.4-0.6,1.4-1.3V45.3C96.3,44.5,95.7,43.9,95,43.9z M12.3,54.4  H7.3v-7.8h5.1V54.4z M21.4,63.8c0,0.5-0.4,1-1,1H16c-0.5,0-1-0.4-1-1v-8.1V45.3v-8.1c0-0.5,0.4-1,1-1h4.4c0.5,0,1,0.4,1,1V63.8z   M33.3,45.3v10.5v13c0,0.5-0.4,1-1,1h-7.2c-0.5,0-1-0.4-1-1v-4.9V37.2v-4.9c0-0.5,0.4-1,1-1h7.2c0.5,0,1,0.4,1,1V45.3z M64.9,54.4  H36v-7.8h28.9V54.4z M76.8,37.2v26.6v4.9c0,0.5-0.4,1-1,1h-7.2c-0.5,0-1-0.4-1-1v-13V45.3v-13c0-0.5,0.4-1,1-1h7.2c0.5,0,1,0.4,1,1  V37.2z M85.8,45.3v10.5v8.1c0,0.5-0.4,1-1,1h-4.4c-0.5,0-1-0.4-1-1V37.2c0-0.5,0.4-1,1-1h4.4c0.5,0,1,0.4,1,1V45.3z M93.6,54.4h-5.1  v-7.8h5.1V54.4z"/></svg>