<svg xmlns="http://www.w3.org/2000/svg" xmlns:xlink="http://www.w3.org/1999/xlink" version="1.1" x="0px" y="0px" viewBox="0 0 100 100" style="enable-background:new 0 0 100 100;" xml:space="preserve"><path d="M87.24749,76.07422l-18.4375-35.3125c-0.34473-0.66016-1.02734-1.07422-1.77246-1.07422s-1.42773,0.41406-1.77246,1.07422  l-7.44622,14.26086L42.28167,22.2959c-0.33105-0.69727-1.03418-1.14209-1.80664-1.14209s-1.47559,0.44482-1.80664,1.14209  L13.513,75.28387c-0.58887,0.34808-0.98816,0.9826-0.98816,1.71613c0,1.10449,0.89551,2,2,2h70.9502  c0.69922,0,1.34766-0.36523,1.71094-0.96387C87.54827,77.43848,87.57171,76.69434,87.24749,76.07422z M40.47503,27.81738  L62.87579,75h-44.8006L40.47503,27.81738z M67.30328,75l-7.33575-15.45166l7.07-13.53955L82.17425,75H67.30328z"/></svg>