<?xml version="1.0" standalone="no"?>
<!DOCTYPE svg PUBLIC "-//W3C//DTD SVG 20010904//EN"
 "http://www.w3.org/TR/2001/REC-SVG-20010904/DTD/svg10.dtd">
<svg version="1.0" xmlns="http://www.w3.org/2000/svg"
 width="226.000000pt" height="226.000000pt" viewBox="0 0 226.000000 226.000000"
 preserveAspectRatio="xMidYMid meet">
<metadata>
Created by potrace 1.11, written by Peter Selinger 2001-2013
</metadata>
<g transform="translate(0.000000,226.000000) scale(0.100000,-0.100000)"
fill="#000000" stroke="none">
<path d="M832 1989 c-17 -6 -39 -42 -76 -121 -30 -62 -77 -162 -106 -223 -29
-60 -72 -150 -95 -200 -23 -49 -65 -137 -93 -195 -157 -329 -192 -403 -192
-405 0 -1 -40 -87 -90 -189 -49 -103 -99 -209 -111 -237 -12 -27 -25 -49 -29
-49 -4 0 -11 -10 -17 -22 -11 -25 -1 -67 20 -80 7 -4 500 -8 1097 -8 887 1
1088 3 1103 14 38 29 29 50 -221 526 -131 250 -153 292 -222 425 -40 77 -81
155 -92 173 -22 35 -56 49 -85 34 -10 -6 -70 -109 -133 -231 l-115 -221 -59
123 c-56 117 -85 179 -174 367 -22 47 -68 144 -102 215 -34 72 -80 167 -101
212 -21 45 -47 86 -58 92 -23 13 -19 13 -49 0z m139 -439 c61 -129 128 -271
149 -315 21 -44 65 -136 98 -205 32 -69 76 -161 97 -205 21 -44 62 -132 92
-195 97 -202 115 -242 110 -246 -2 -2 -303 -3 -669 -2 l-665 3 61 125 c34 69
80 166 103 215 23 50 72 153 108 230 37 77 84 176 105 220 49 104 117 247 197
415 36 74 72 150 80 169 8 18 16 31 18 29 2 -2 54 -109 116 -238z m769 -472
c47 -89 114 -219 150 -288 36 -69 98 -187 138 -262 40 -75 72 -139 72 -142 0
-4 -99 -6 -220 -6 l-221 0 -53 113 c-29 61 -79 165 -110 230 l-57 118 61 117
c33 64 79 154 102 200 24 45 45 82 48 82 3 0 44 -73 90 -162z"/>
</g>
</svg>
