<svg xmlns="http://www.w3.org/2000/svg" xmlns:xlink="http://www.w3.org/1999/xlink" version="1.1" x="0px" y="0px" viewBox="0 0 100 100" enable-background="new 0 0 100 100" xml:space="preserve"><style type="text/css">	
.st0{fill:#20a4f3;}
</style><path class="st0" d="M57.31,51.25l11.816-25.341c1.374-2.947,1.349-9.991-1.937-11.523c-0.453-0.211-0.961-0.318-1.509-0.318  c-3.226,0-7.418,3.787-8.563,6.243L50,35.575l-7.118-15.264c-0.672-1.443-2.288-3.21-4.117-4.5  c-2.313-1.631-4.427-2.137-5.954-1.426c-3.284,1.531-3.311,8.574-1.938,11.523l11.817,25.34L29.532,79.467  c-0.168,0.36-0.187,0.773-0.05,1.146c0.136,0.374,0.415,0.679,0.775,0.847l9.291,4.332c0.205,0.096,0.421,0.141,0.633,0.141  c0.564,0,1.106-0.32,1.36-0.866l8.459-18.141l8.459,18.141c0.168,0.36,0.473,0.64,0.847,0.775c0.166,0.061,0.339,0.091,0.513,0.091  c0.217,0,0.434-0.047,0.634-0.141l9.289-4.332c0.751-0.35,1.076-1.242,0.726-1.993L57.31,51.25z M33.592,24.642  c-1.041-2.234-0.559-7.049,0.486-7.537c0.307-0.143,1.38,0.046,2.958,1.159c1.388,0.979,2.674,2.342,3.127,3.314l8.183,17.546  l-4,8.576L33.592,24.642z M39.457,82.439l-6.572-3.064l26.952-57.798c0.812-1.74,4.145-4.51,5.844-4.51  c0.14,0,0.211,0.023,0.241,0.037c1.046,0.488,1.527,5.302,0.485,7.537L39.457,82.439z M60.545,82.439l-8.89-19.063l4-8.576  l11.46,24.575L60.545,82.439z M52.701,48.122l-2.04-0.951c-0.753-0.352-1.644-0.025-1.993,0.726  c-0.351,0.751-0.025,1.644,0.726,1.993l2.04,0.951c0.205,0.096,0.421,0.141,0.633,0.141c0.564,0,1.106-0.32,1.36-0.866  C53.777,49.364,53.452,48.472,52.701,48.122z M49.646,54.67l-2.039-0.951c-0.753-0.353-1.644-0.025-1.993,0.726  c-0.351,0.75-0.025,1.643,0.726,1.993l2.039,0.951c0.205,0.096,0.421,0.141,0.633,0.141c0.564,0,1.105-0.32,1.36-0.866  C50.723,55.913,50.397,55.021,49.646,54.67z M83.915,75.269c-0.316-0.764-1.192-1.131-1.96-0.812c-0.567,0.234-1.15,0.4-1.74,0.508  V33.294c1.355-0.584,2.308-1.931,2.308-3.497v-5.121c0-2.1-1.708-3.808-3.808-3.808s-3.808,1.708-3.808,3.808v5.121  c0,1.566,0.952,2.913,2.308,3.497v41.671c-0.59-0.107-1.173-0.273-1.74-0.508c-0.765-0.318-1.644,0.046-1.96,0.812  c-0.317,0.766,0.046,1.643,0.812,1.96c0.938,0.389,1.908,0.636,2.889,0.767v1.524c0,0.828,0.672,1.5,1.5,1.5s1.5-0.672,1.5-1.5  v-1.524c0.98-0.131,1.951-0.378,2.889-0.767C83.869,76.911,84.232,76.034,83.915,75.269z M79.522,29.797  c0,0.444-0.362,0.807-0.808,0.807s-0.808-0.362-0.808-0.807v-5.121c0-0.445,0.362-0.808,0.808-0.808s0.808,0.362,0.808,0.808V29.797  z M24.525,74.457c-0.567,0.234-1.15,0.4-1.74,0.508V33.294c1.355-0.584,2.308-1.931,2.308-3.497v-5.121  c0-2.1-1.708-3.808-3.808-3.808s-3.808,1.708-3.808,3.808v5.121c0,1.566,0.952,2.913,2.308,3.497v41.671  c-0.59-0.107-1.173-0.273-1.74-0.508c-0.765-0.318-1.644,0.046-1.96,0.812c-0.317,0.766,0.046,1.643,0.812,1.96  c0.938,0.389,1.908,0.636,2.889,0.767v1.524c0,0.828,0.672,1.5,1.5,1.5s1.5-0.672,1.5-1.5v-1.524  c0.98-0.131,1.951-0.378,2.889-0.767c0.766-0.317,1.129-1.194,0.812-1.96C26.169,74.505,25.294,74.138,24.525,74.457z   M22.093,29.797c0,0.444-0.362,0.807-0.808,0.807s-0.808-0.362-0.808-0.807v-5.121c0-0.445,0.362-0.808,0.808-0.808  s0.808,0.362,0.808,0.808V29.797z"/></svg>